<?xml version="1.0" encoding="UTF-8" standalone="no"?>
<!DOCTYPE svg PUBLIC "-//W3C//DTD SVG 1.1//EN" "http://www.w3.org/Graphics/SVG/1.1/DTD/svg11.dtd">
<svg width="100%" height="100%" viewBox="0 0 384 384" version="1.1" xmlns="http://www.w3.org/2000/svg" xmlns:xlink="http://www.w3.org/1999/xlink" xml:space="preserve" xmlns:serif="http://www.serif.com/" style="fill-rule:evenodd;clip-rule:evenodd;stroke-linejoin:round;stroke-miterlimit:2;">
    <g id="surface113621007">
        <path d="M174.398,33.602C100.801,41.602 41.602,100.801 33.602,172.801C25.602,248 68.801,315.199 134.398,340.801C139.199,342.398 144,339.199 144,332.801L144,307.199C144,307.199 137.602,308.801 129.602,308.801C107.199,308.801 97.602,289.602 96,278.398C94.398,272 91.199,267.199 86.398,262.398C81.602,260.801 80,260.801 80,259.199C80,256 84.801,256 86.398,256C96,256 104,267.199 107.199,272C115.199,284.801 124.801,288 129.602,288C136,288 140.801,286.398 144,284.801C145.602,273.602 150.398,262.398 160,256C123.199,248 96,227.199 96,192C96,174.398 104,156.801 115.199,144C113.602,140.801 112,132.801 112,121.602C112,115.199 112,105.602 116.801,96C116.801,96 139.199,96 161.602,116.801C169.602,113.602 180.801,112 192,112C203.199,112 214.398,113.602 224,116.801C244.801,96 268.801,96 268.801,96C272,105.602 272,115.199 272,121.602C272,134.398 270.398,140.801 268.801,144C280,156.801 288,172.801 288,192C288,227.199 260.801,248 224,256C233.602,264 240,278.398 240,292.801L240,334.398C240,339.199 244.801,344 251.199,342.398C310.398,318.398 352,260.801 352,193.602C352,97.602 270.398,22.398 174.398,33.602Z" style="fill-rule:nonzero;"/>
    </g>
</svg>
